<svg id="Capa_1" enable-background="new 0 0 512.479 512.479" height="512" viewBox="0 0 512.479 512.479" width="512" xmlns="http://www.w3.org/2000/svg"><path d="m404.095 338.081c-2.224-2.393-5.373-3.765-8.639-3.765h-60.194l-1.609-99.893c-.541-33.645-15.775-65.179-41.796-86.517l-29.256-23.989v-55.567c0-4.143-3.357-7.5-7.5-7.5s-7.5 3.357-7.5 7.5v19.854h-52.768v-73.02c0-.102.082-.184.184-.184h52.4c.102 0 .184.082.184.184v21.203c0 4.143 3.357 7.5 7.5 7.5s7.5-3.357 7.5-7.5v-21.203c.001-8.372-6.811-15.184-15.183-15.184h-52.4c-8.372 0-15.184 6.812-15.184 15.184v108.734l-29.256 23.989c-26.021 21.338-41.255 52.872-41.796 86.517l-2.291 142.245c-.066 4.142 3.236 7.554 7.378 7.62.041.001.082.001.124.001 4.085 0 7.43-3.279 7.496-7.379l.231-14.345h17.153l7.637 5.397c19.675 13.907 42.779 22.03 66.818 23.49 2.63.16 5.255.24 7.879.239 17.406 0 34.596-3.517 50.573-10.304l3.006 41.112h-154.031l.219-13.628c.066-4.142-3.236-7.554-7.378-7.62-.041-.001-.082-.001-.124-.001-4.085 0-7.43 3.278-7.496 7.379l-.743 46.13c-.247 15.344 5.545 29.817 16.308 40.756 10.764 10.938 25.143 16.962 40.488 16.962h216.929c9.062 0 16.678-7.079 17.34-16.117l6.993-95.64c.302-4.131-2.803-7.725-6.934-8.027-4.135-.29-7.724 2.803-8.027 6.934l-.954 13.05c-1.873 25.61-23.455 45.671-49.134 45.671s-47.261-20.062-49.133-45.672c0-.003-.001-.005-.001-.008l-4.633-63.352h107.535l-1.342 18.349c-.302 4.131 2.803 7.725 6.934 8.027 4.142.316 7.726-2.804 8.027-6.934l1.593-21.786c.237-3.258-.903-6.499-3.127-8.892zm-244.005-178.574 32-26.24c1.737-1.425 2.744-3.553 2.744-5.8v-24.263h52.768v24.263c0 2.247 1.007 4.375 2.744 5.8l32 26.24c21.044 17.255 33.959 42.189 36.024 69.131h-14.808l-7.637-5.397c-44.687-31.587-104.731-31.588-149.416-.001l-7.637 5.398h-14.808c2.066-26.942 14.983-51.876 36.026-69.131zm-27.858 325.489c-7.921-8.05-12.183-18.702-12.001-29.993l.282-17.502h155.37s4.389 59.607 4.441 59.978h-118.295c-11.293 0-21.875-4.434-29.797-12.483zm206.01-11.647c17.967 0 34.388-7.536 46.136-19.673l-3.041 41.592c-.09 1.239-1.136 2.211-2.379 2.211h-81.431c-1.243 0-2.289-.972-2.379-2.211l-3.042-41.596c11.748 12.139 28.169 19.677 46.136 19.677zm-57.214-139.033c-3.267 0-6.416 1.373-8.641 3.766-2.224 2.394-3.362 5.635-3.124 8.892l1.352 18.492c-17.515 8.389-36.897 12.191-56.379 11.017-21.25-1.292-41.676-8.473-59.069-20.768l-7.857-5.553c-2.401-1.698-5.226-2.596-8.168-2.596h-17.181l1.674-103.929h15.507c2.942 0 5.767-.897 8.168-2.595l7.857-5.555c39.506-27.924 92.594-27.925 132.1.001l7.857 5.553c2.401 1.698 5.226 2.596 8.168 2.596h15.508l1.46 90.679z"/></svg>