<svg xmlns="http://www.w3.org/2000/svg" viewBox="0 0 512 512"><style>.a{fill:#7F8499;}.b{fill:#5B5D6E;}.c{fill:#E6AF78;}</style><path d="M366.3 406.1H66.2c-9.8 0-17.7-7.9-17.7-17.7V17.7C48.6 7.9 56.5 0 66.2 0h300.1C376.1 0 384 7.9 384 17.7v370.8C384 398.2 376.1 406.1 366.3 406.1z" fill="#F1F4FB"/><path d="M384 388.4v-77c-0.9 0.3-1.9 0.5-2.8 0.9 -6.3-6.6-14.7-11-24.1-12 -1.4-0.1-2.7-0.2-4-0.2 -1.5 0-3 0.1-4.4 0.2v-92.9c0-21.9-17.8-39.7-39.7-39.7l0 0c-1.3 0-2.7 0.1-4 0.2 -20 2-35.7 19.9-35.7 40.8v101.8l-21.6 21.6c-15.2 15.2-21.4 36.9-16.5 57.8l3.8 16.2h131.3C376.1 406.1 384 398.2 384 388.4z" fill="#D5DCED"/><circle cx="128" cy="105.9" r="26.5" fill="#B4E66E"/><circle cx="128" cy="203" r="26.5" fill="#DAE169"/><circle cx="128" cy="300.1" r="26.5" fill="#FFDC64"/><path d="M331 229.5H189.8c-4.9 0-8.8-4-8.8-8.8s3.9-8.8 8.8-8.8h141.2c4.9 0 8.8 4 8.8 8.8S335.9 229.5 331 229.5z" class="a"/><path d="M295.7 194.2H189.8c-4.9 0-8.8-4-8.8-8.8 0-4.9 3.9-8.8 8.8-8.8h105.9c4.9 0 8.8 4 8.8 8.8C304.6 190.3 300.6 194.2 295.7 194.2z" class="b"/><path d="M331 326.6H189.8c-4.9 0-8.8-4-8.8-8.8s3.9-8.8 8.8-8.8h141.2c4.9 0 8.8 4 8.8 8.8S335.9 326.6 331 326.6z" class="a"/><path d="M295.7 291.3H189.8c-4.9 0-8.8-4-8.8-8.8s3.9-8.8 8.8-8.8h105.9c4.9 0 8.8 4 8.8 8.8S300.6 291.3 295.7 291.3z" class="b"/><path d="M331 132.4H189.8c-4.9 0-8.8-4-8.8-8.8 0-4.9 3.9-8.8 8.8-8.8h141.2c4.9 0 8.8 4 8.8 8.8C339.9 128.5 335.9 132.4 331 132.4z" class="a"/><path d="M295.7 97.1H189.8c-4.9 0-8.8-4-8.8-8.8 0-4.9 3.9-8.8 8.8-8.8h105.9c4.9 0 8.8 4 8.8 8.8C304.6 93.2 300.6 97.1 295.7 97.1z" class="b"/><path d="M443.7 335.6c-13.2-1.3-24.3 9-24.3 22v-7.6c0-11.5-8.3-22.1-19.8-23.2 -13.2-1.3-24.3 9-24.3 22v-7.6c0-11.5-8.3-22.1-19.8-23.2 -13.2-1.3-24.3 9-24.3 22V207.4c0-12.9-11.1-23.3-24.3-22 -11.5 1.2-19.8 11.7-19.8 23.2v109.1l-26.8 26.8c-10.8 10.8-15.3 26.4-11.8 41.3l18.5 78.5c6.6 27.9 31.5 47.6 60.2 47.6h74.6c34.1 0 61.8-27.7 61.8-61.8v-91.4C463.4 347.2 455.1 336.7 443.7 335.6z" fill="#F0C087"/><path d="M339.9 361.4c4.9 0 8.8-4 8.8-8.8v-34.2c-10.1 2.1-17.7 10.8-17.7 21.5v12.7C331 357.4 335 361.4 339.9 361.4z" class="c"/><path d="M384 370.2c4.9 0 8.8-4 8.8-8.8v-34.2c-10.1 2.1-17.7 10.8-17.7 21.5v12.7C375.2 366.3 379.1 370.2 384 370.2z" class="c"/><path d="M428.1 379c4.9 0 8.8-4 8.8-8.8v-34.2c-10.1 2.1-17.7 10.8-17.7 21.5v12.7C419.3 375.1 423.3 379 428.1 379z" class="c"/><path d="M288.9 464.4l-20.5-87c-2.3-9.6 0.6-19.7 7.6-26.7l10.9-10.9v22.1c0 4.9 4 8.8 8.8 8.8 4.9 0 8.8-4 8.8-8.8V185.9c-10.3 2.2-17.7 12-17.7 22.8v109.1l-26.8 26.8c-10.8 10.8-15.3 26.4-11.8 41.3l18.5 78.5c6.6 27.9 31.5 47.6 60.2 47.6h22C320.4 512 295.5 492.3 288.9 464.4z" class="c"/></svg>