<svg xmlns="http://www.w3.org/2000/svg" viewBox="0 0 512 512"><style>.a{fill:#C7CFE2;}.b{fill:#FFDC64;}</style><path d="M494.3 365.4H282.5c-9.8 0-17.7-7.9-17.7-17.7V215.4c0-9.8 7.9-17.7 17.7-17.7h211.9c9.8 0 17.7 7.9 17.7 17.7v132.4C512 357.5 504.1 365.4 494.3 365.4z" fill="#00C3FF"/><path d="M423.7 321.3h-17.7c-4.9 0-8.8-3.9-8.8-8.8 0-4.9 3.9-8.8 8.8-8.8h17.7c4.9 0 8.8 3.9 8.8 8.8C432.6 317.3 428.6 321.3 423.7 321.3z" class="a"/><path d="M476.7 321.3h-17.7c-4.9 0-8.8-3.9-8.8-8.8 0-4.9 3.9-8.8 8.8-8.8h17.7c4.9 0 8.8 3.9 8.8 8.8C485.5 317.3 481.6 321.3 476.7 321.3z" class="a"/><path d="M317.8 321.3h-8.8c-4.9 0-8.8-3.9-8.8-8.8 0-4.9 3.9-8.8 8.8-8.8h8.8c4.9 0 8.8 3.9 8.8 8.8C326.6 317.3 322.7 321.3 317.8 321.3z" class="a"/><path d="M370.8 321.3h-17.7c-4.9 0-8.8-3.9-8.8-8.8 0-4.9 3.9-8.8 8.8-8.8h17.7c4.9 0 8.8 3.9 8.8 8.8C379.6 317.3 375.6 321.3 370.8 321.3z" class="a"/><path d="M293 292.1l-67.5-11.2c-11.4-1.9-17.9-14-13.2-24.6l19.1-42.9c4.3-9.6 13.7-15.7 24.2-15.7h26.9 70.6l-17.7-23.6c-5.6-7.5-14-12.4-23.3-13.8l-92-13.1c-11.2-1.6-22.7-0.1-33.1 4.4l-92.7 39.7c-7.6 3.3-15.6 5.7-23.8 6.4h0 -8.8v132.4h228.1c10.6 0 19.1-8.6 19.1-19.1C309 301.7 302.2 293.7 293 292.1z" fill="#F0C087"/><path d="M309 241.8h26.5c4.9 0 8.8 4 8.8 8.8v17.7c0 4.9-4 8.8-8.8 8.8h-26.5c-4.9 0-8.8-4-8.8-8.8V250.7C300.1 245.8 304.1 241.8 309 241.8z" class="b"/><circle cx="459" cy="259.5" r="17.7" class="b"/><circle cx="423.7" cy="259.5" r="17.7" fill="#FF5050"/><path d="M88.3 193.7c-5.7 2-11.6 3.5-17.7 4h0 -8.8v132.4h26.5V193.7z" fill="#E6AF78"/><path d="M8.8 338.9h53c4.9 0 8.8-4 8.8-8.8V197.7c0-4.9-4-8.8-8.8-8.8H8.8c-4.9 0-8.8 4-8.8 8.8v132.4C0 335 4 338.9 8.8 338.9z" fill="#E4EAF8"/><circle cx="35.3" cy="303.6" r="13.2" fill="#959CB5"/></svg>