<svg xmlns="http://www.w3.org/2000/svg" viewBox="0 0 457.7 457.7"><style>.a{fill:#CCC;}.b{fill:#FCD18B;}.c{fill:#808080;}.d{fill:#FFF;}.e{fill:#4D4D4D;}.f{fill:#DDB57A;}.g{fill:#868686;}</style><polyline points="248.6 411.5 2.6 411.5 2.6 14 248.6 14 248.6 411.5 " fill="#E6E6E6"/><rect x="27.6" y="39" width="196" height="21.3" class="a"/><rect x="27.6" y="365.2" width="196" height="21.3" class="a"/><rect x="27.6" y="317.5" width="196" height="21.3" class="a"/><rect x="27.6" y="269.8" width="196" height="21.3" class="a"/><rect x="27.6" y="222.1" width="196" height="21.3" class="a"/><path d="M338.1 267.4v-37.8l64.4 64.4c8.8 8.8 15.7 19.2 20.3 30.5 4.7 11.3 7.1 23.5 7.1 35.9l25.1 18.2 -59 79.1L354.6 433.3h-13.3c-15.1 0-30-3.6-43.4-10.6l-79.1-41.3v-1.2h93.6 6.2c10.8 0 19.6-8.8 19.6-19.6L338.1 267.4" class="b"/><path d="M171.8 289.2v4.6c-1.9-0.3-3.8-0.9-5.5-1.8C168 290.8 169.9 289.9 171.8 289.2z" class="b"/><path d="M171.8 243.5v5.1c-0.3-0.2-0.5-0.5-0.8-0.7l-4.3-4.3c0.9-0.1 1.7-0.2 2.6-0.2C170.2 243.3 171 243.4 171.8 243.5z" class="b"/><path d="M318.5 76.5H191.4c-10.8 0-19.6 8.8-19.6 19.6v264.5c0 10.8 8.8 19.6 19.6 19.6h120.9c-10.5-13-13.4-30.1-8.6-45.4H179.7v-218.1h150.6v143l7.9 7.9V96.1C338.1 85.3 329.3 76.5 318.5 76.5M255 342.5c8.6 0 15.5 7 15.5 15.5 0 8.6-6.9 15.5-15.5 15.5 -8.6 0-15.5-6.9-15.5-15.5C239.4 349.5 246.4 342.5 255 342.5" class="c"/><path d="M163.2 326l6.4 6.4c0.7 0.7 1.4 1.3 2.2 1.9v-40.5c-1.9-0.3-3.8-0.9-5.5-1.8 -1.1 0.7-2.1 1.6-3.1 2.5C154.5 303.3 154.5 317.3 163.2 326z" class="b"/><path d="M153.7 281.2l6.4 6.4c1.9 1.9 4 3.3 6.2 4.4 1.7-1.2 3.6-2.1 5.5-2.8v-40.7c-0.3-0.2-0.5-0.5-0.8-0.7l-4.3-4.3c-4.8 0.6-9.4 2.7-13.1 6.3C145 258.5 145 272.6 153.7 281.2z" class="b"/><path d="M171.8 243.5v-50c-0.5 0-1.1-0.1-1.6-0.1 -5.7 0-11.4 2.2-15.7 6.5 -8.7 8.7-8.7 22.7 0 31.4l12.2 12.2c0.9-0.1 1.7-0.2 2.6-0.2C170.2 243.3 171 243.4 171.8 243.5z" class="b"/><path d="M330.3 116.6v143l-22.7-22.7c-9.6-9.6-25.1-9.6-34.7 0 -4.8 4.8-7.2 11.1-7.2 17.4 0 6.3 2.4 12.6 7.2 17.4l28.3 28.3c7.4 7.4 9.6 18.8 5.1 28.2 -1 2.1-1.9 4.3-2.6 6.6H179.7V116.6H330.3" class="d"/><path d="M255 342.5c8.6 0 15.5 7 15.5 15.5 0 8.6-6.9 15.5-15.5 15.5 -8.6 0-15.5-6.9-15.5-15.5C239.4 349.5 246.4 342.5 255 342.5z" class="e"/><path d="M367.4 284.9l-29.3-29.3v11.8l23.4 23.4c2.6 2.6 7.1 0.8 7.1-2.9C368.6 286.8 368.2 285.7 367.4 284.9" class="f"/><polyline points="338.1 229.6 348 239.5 348 270.1 338.1 267.4 338.1 229.6 " class="f"/><path d="M239.5 194.1h-45.1v-45.1h45.1V194.1M205.4 183.1h23v-23h-23L205.4 183.1" class="e"/><rect x="212.1" y="166.8" width="9.6" height="9.6" class="e"/><path d="M239.5 270.2h-45.1v-45.1h45.1V270.2zM205.4 259.1h23v-23h-23L205.4 259.1 205.4 259.1z" class="e"/><rect x="212.1" y="242.9" width="9.6" height="9.6" class="e"/><path d="M315.5 194.1h-45.1v-45.1h45.1V194.1M281.5 183.1h23v-23h-23V183.1" class="e"/><polyline points="297.8 166.8 297.8 176.4 288.2 176.4 288.2 166.8 297.8 166.8 " class="e"/><polyline points="259.8 166.8 259.8 176.4 250.2 176.4 250.2 166.8 259.8 166.8 " class="e"/><polyline points="259.8 176.4 259.8 186 250.2 186 250.2 176.4 259.8 176.4 " class="e"/><polyline points="259.8 214.4 259.8 224 250.2 224 250.2 214.4 259.8 214.4 " class="e"/><polyline points="269.6 224.3 269.6 233.9 260 233.9 260 224.3 269.6 224.3 " class="e"/><polyline points="269.6 233.9 269.6 243.4 260 243.4 260 233.9 269.6 233.9 " class="e"/><polyline points="279.4 243.6 279.4 253.2 269.8 253.2 269.8 243.6 279.4 243.6 " class="e"/><polyline points="279.4 253.2 279.4 262.8 269.8 262.8 269.8 253.2 279.4 253.2 " class="e"/><polyline points="315.5 260.6 315.5 270.2 306 270.2 306 260.6 315.5 260.6 " class="e"/><polyline points="306 243.6 306 253.2 296.4 253.2 296.4 243.6 306 243.6 " class="e"/><polyline points="315.5 243.6 315.5 253.2 306 253.2 306 243.6 315.5 243.6 " class="e"/><polyline points="306 202.2 306 211.8 296.4 211.8 296.4 202.2 306 202.2 " class="e"/><polyline points="315.5 202.2 315.5 211.8 306 211.8 306 202.2 315.5 202.2 " class="e"/><polyline points="260 243.6 260 253.2 250.4 253.2 250.4 243.6 260 243.6 " class="e"/><polyline points="250.2 204.8 250.2 214.4 240.6 214.4 240.6 204.8 250.2 204.8 " class="e"/><polyline points="283 212.7 283 222.3 273.4 222.3 273.4 212.7 283 212.7 " class="e"/><polyline points="292.6 212.7 292.6 222.3 283 222.3 283 212.7 292.6 212.7 " class="e"/><polyline points="292.6 222.3 292.6 231.9 283 231.9 283 222.3 292.6 222.3 " class="e"/><polyline points="283 203.1 283 212.7 273.4 212.7 273.4 203.1 283 203.1 " class="e"/><polyline points="273.4 203.1 273.4 212.7 263.8 212.7 263.8 203.1 273.4 203.1 " class="e"/><rect x="216.5" y="204.8" width="9.6" height="9.6" class="e"/><rect x="194.4" y="204.8" width="9.6" height="9.6" class="e"/><polyline points="259.8 186 259.8 195.6 250.2 195.6 250.2 186 259.8 186 " class="e"/><rect x="27.6" y="89.2" width="104" height="104" class="d"/><path d="M102.2 163.8H57.1v-45.1h45.1V163.8zM68.2 152.7h23v-23H68.2V152.7z" class="c"/><rect x="74.8" y="136.4" width="9.6" height="9.6" class="c"/><path d="M306 270.2v-9.6h9.6v9.6H306M269.8 253.2v-9.6h9.6v9.6 9.6h-9.6V253.2M296.4 253.2v-9.6h9.6v9.6H296.4M292.6 229.8v2.1h-9.6v-1.2c-3.7 1.1-7.2 3.2-10.1 6.1 -1.2 1.2-2.3 2.6-3.2 4v2.6h-1.5c-1.7 3.4-2.5 7.1-2.5 10.8 0 6.3 2.4 12.6 7.2 17.4l28.3 28.3c7.4 7.4 9.6 18.8 5.1 28.2 -1 2.1-1.9 4.3-2.6 6.6H281.9l0 0h21.7c-4.7 15.3-1.9 32.4 8.6 45.4h4.2c11.9 0 21.6-9.6 21.7-21.5v-91.3l-7.8-7.8 -14.7-14.7v8.4h-9.6v-9.6h8.4l-6.8-6.8C303.4 232.7 298.1 230.3 292.6 229.8M330.3 116.6h-81.6v0h81.6V116.6" class="d"/><path d="M248.6 116.6H215.5l33.2 0V116.6M248.6 76.5h-45.4H248.6" fill="#EEE"/><path d="M338.1 267.4L338.1 267.4 338.1 267.4l0 91.3c0-0.1 0-0.1 0-0.2V267.4l0 0" fill="#FDE0B0"/><path d="M303.7 334.7h-21.7l13.8 45.4h16.5C301.8 367.1 298.9 350 303.7 334.7M318.5 76.5h-69.9 -45.4l12.2 40.1h33.2 81.6l0 0v143l0 0v0l7.8 7.8 0 0 0 0v-11.8 -26l0 0V96.1l0 0C338.1 85.3 329.3 76.5 318.5 76.5L318.5 76.5" fill="#A9A9A9"/><path d="M288.2 176.4v-9.6h9.6v9.6H288.2M304.5 160.1h-23v23h23V160.1M250.2 224v-9.6h9.6V224H250.2M273.4 222.3v-9.6h9.6v9.6H273.4M273.4 203.1h9.6v9.6h-9.6 -9.6v-9.6H273.4M296.4 211.8v-9.6h9.6v9.6H296.4M306 211.8v-9.6h9.6v9.6H306M250.2 176.4v-9.6h9.6v9.6 9.6 9.6h-9.6v-9.6L250.2 176.4M270.4 194.1v-45.1h45.1v45.1H270.4M330.3 116.6h0 -81.6 -33.2l9.9 32.4h14.1v45.1h-0.4l3.3 10.7h7.8v9.6h-4.9l8.9 29.2h5.8v9.6h-2.9l12.3 40.5 12.5 41h21.7c0.7-2.2 1.5-4.4 2.6-6.6 4.5-9.5 2.3-20.8-5.1-28.2l-28.3-28.3c-4.8-4.8-7.2-11.1-7.2-17.4 0-3.7 0.8-7.4 2.5-10.8h-8.1v-9.6 -9.6h9.6v9.6 7c0.9-1.4 2-2.7 3.2-4 2.9-2.9 6.4-5 10.1-6.1v-8.4 -9.6h9.6v9.6 7.5c5.5 0.5 10.8 2.9 15 7.1l6.8 6.8h1.2v1.2l14.7 14.7 0 0V116.6" class="d"/><polyline points="338.1 229.6 338.1 255.6 338.1 267.4 338.1 267.4 338.1 229.6 338.1 229.6 " fill="#E8CDA5"/><polyline points="239.5 149 225.3 149 239.1 194.1 239.5 194.1 239.5 149 " class="g"/><path d="M281.5 183.1v-23h23v23L281.5 183.1M315.5 149h-45.1v45.1h45.1V149" class="g"/><polyline points="297.8 166.8 288.2 166.8 288.2 176.4 297.8 176.4 297.8 166.8 " class="g"/><polyline points="259.8 166.8 250.2 166.8 250.2 176.4 259.8 176.4 259.8 166.8 " class="g"/><polyline points="259.8 176.4 259.8 176.4 250.2 176.4 250.2 186 259.8 186 259.8 176.4 " class="g"/><polyline points="259.8 214.4 250.2 214.4 250.2 224 259.8 224 259.8 214.4 " class="g"/><polyline points="269.6 224.3 260 224.3 260 233.9 269.6 233.9 269.6 224.3 " class="g"/><polyline points="269.6 233.9 269.6 233.9 260 233.9 260 243.4 268.1 243.4 269.6 243.4 269.6 240.8 269.6 233.9 " class="g"/><polyline points="279.4 243.6 269.8 243.6 269.8 253.2 279.4 253.2 279.4 243.6 " class="g"/><polyline points="279.4 253.2 279.4 253.2 269.8 253.2 269.8 262.8 279.4 262.8 279.4 253.2 " class="g"/><polyline points="315.5 260.6 306 260.6 306 270.2 315.5 270.2 315.5 260.6 " class="g"/><polyline points="306 243.6 296.4 243.6 296.4 253.2 306 253.2 306 243.6 " class="g"/><polyline points="315.5 243.6 314.4 243.6 306 243.6 306 253.2 315.5 253.2 315.5 244.8 315.5 243.6 " class="g"/><polyline points="306 202.2 296.4 202.2 296.4 211.8 306 211.8 306 202.2 " class="g"/><polyline points="315.5 202.2 306 202.2 306 211.8 315.5 211.8 315.5 202.2 " class="g"/><polyline points="260 243.6 254.2 243.6 257.1 253.2 260 253.2 260 243.6 " class="g"/><polyline points="250.2 204.8 242.3 204.8 245.3 214.4 250.2 214.4 250.2 204.8 " class="g"/><polyline points="283 212.7 273.4 212.7 273.4 222.3 283 222.3 283 212.7 " class="g"/><polyline points="292.6 212.7 283 212.7 283 222.3 292.6 222.3 292.6 212.7 " class="g"/><polyline points="292.6 222.3 292.6 222.3 283 222.3 283 230.8 283 231.9 292.6 231.9 292.6 229.8 292.6 222.3 " class="g"/><polyline points="283 203.1 273.4 203.1 273.4 212.7 283 212.7 283 203.1 " class="g"/><polyline points="273.4 203.1 263.8 203.1 263.8 212.7 273.4 212.7 273.4 203.1 " class="g"/><polyline points="259.8 186 259.8 186 250.2 186 250.2 195.6 259.8 195.6 259.8 186 " class="g"/><path d="M338.1 267.4v93.2c0 10.8-8.8 19.6-19.6 19.6h-6.2c-10.5-13-13.4-30.2-8.6-45.4h26.6v-75.2L338.1 267.4z" class="b"/><path d="M330.3 259.5v75.2h-26.6c0.7-2.2 1.5-4.4 2.6-6.6 4.5-9.5 2.3-20.8-5.1-28.2l-28.3-28.3c-4.8-4.8-7.2-11.1-7.2-17.4 0-6.3 2.4-12.6 7.2-17.4 9.6-9.6 25.2-9.6 34.7 0L330.3 259.5z" class="b"/><path d="M302.1 244.3c-5.8-5.8-15.2-5.8-21 0s-5.8 15.2 0 21 10.8 1.4 16.6-4.4C303.5 255.1 307.8 250.1 302.1 244.3z" class="d"/><path d="M423.3 70.7c0 26.9-15 50.2-37 62.2 -10 5.4-21.5 8.5-33.6 8.5 -39 0-70.7-31.6-70.7-70.7 0-36.8 28.1-67 63.9-70.4C348.1 0.1 350.3 0 352.6 0 391.6 0 423.3 31.6 423.3 70.7z" fill="#FC7A51"/><path d="M352.6 106.9h-15.9v-8.9h15.9c6.3 0 11.5-5.1 11.5-11.5 0-6.3-5.1-11.5-11.5-11.5 -11.2 0-20.3-9.1-20.3-20.3s9.1-20.3 20.3-20.3h15.9v8.9h-15.9c-6.3 0-11.5 5.1-11.5 11.5s5.1 11.5 11.5 11.5c11.2 0 20.3 9.1 20.3 20.3S363.8 106.9 352.6 106.9z" class="d"/><rect x="348.2" y="17.2" width="8.9" height="21.7" class="d"/><rect x="348.2" y="102.5" width="8.9" height="21.7" class="d"/></svg>