<svg xmlns="http://www.w3.org/2000/svg" viewBox="0 0 512 512"><style>.a{fill:#F5F5F5;}.b{fill:#FF4B55;}.c{fill:#41479B;}</style><path d="M473.7 88.3H38.3C17.2 88.3 0 105.4 0 126.6v73.5h512v-73.5C512 105.4 494.8 88.3 473.7 88.3z" class="a"/><path d="M0 385.4c0 21.2 17.2 38.3 38.3 38.3h435.3c21.2 0 38.3-17.2 38.3-38.3v-73.5H0V385.4z" class="b"/><rect y="200.1" width="512" height="111.8" class="c"/><path d="M130.2 339.3c-2.6-1.5-64-37.2-64-92.1v-75h132.4v75c0 54.9-61.4 90.6-64 92.1l-2.2 1.2L130.2 339.3z" class="b"/><polygon points="167.1 233.9 146.3 236.7 139.4 236.7 139.4 224.3 143.5 224.3 160.2 227 157.9 217.3 160.2 207.6 143.5 210.4 139.4 210.4 139.4 206.2 142.1 185.4 132.4 188.2 122.7 185.4 125.5 206.2 125.5 210.4 121.3 210.4 104.7 207.6 106.9 217.3 104.7 227 121.3 224.3 125.5 224.3 125.5 236.7 118.5 236.7 97.7 233.9 100.6 243.6 97.7 253.3 118.5 250.5 125.5 250.5 125.5 282.5 139.4 282.5 139.4 250.5 146.3 250.5 167.1 253.3 164.3 243.6 " class="a"/><path d="M132.4 269.2c-9.1 0-16.9 5.5-20.3 13.4 -0.6 0-1.2-0.2-1.8-0.2 -11.8 0-21.3 9.2-21.9 20.8 17.9 22 40.3 35.1 41.8 36l2.2 1.3 2.2-1.2c1.6-0.9 23.9-14 41.8-36 -0.7-11.6-10.2-20.8-21.9-20.8 -0.6 0-1.2 0.1-1.8 0.2C149.4 274.8 141.5 269.2 132.4 269.2z" class="c"/><path d="M194.2 176.6c0 0 0 53 0 70.6 0 53-61.8 88.3-61.8 88.3s-61.8-35.3-61.8-88.3c0-17.7 0-70.6 0-70.6H194.2M203 167.7h-8.8H70.6h-8.8v8.8 70.6c0 57.4 63.5 94.4 66.2 95.9l4.4 2.5 4.4-2.5c2.7-1.5 66.2-38.5 66.2-95.9v-70.6 -8.8H203z" class="a"/></svg>